<?xml version="1.0" encoding="UTF-8" standalone="no"?><!DOCTYPE svg PUBLIC "-//W3C//DTD SVG 1.1//EN" "http://www.w3.org/Graphics/SVG/1.1/DTD/svg11.dtd"><svg width="100%" height="100%" viewBox="0 0 75 75" version="1.1" xmlns="http://www.w3.org/2000/svg" xmlns:xlink="http://www.w3.org/1999/xlink" xml:space="preserve" xmlns:serif="http://www.serif.com/" style="fill-rule:evenodd;clip-rule:evenodd;stroke-linejoin:round;stroke-miterlimit:2;"><g id="XMLID_1_"><path id="XMLID_2_" d="M33.65,8.118l-26.874,11.117c-1.5,0.612 -1.48,2.745 0.02,3.336l26.992,10.702c2.368,0.948 5.015,0.948 7.384,0l26.991,-10.702c1.5,-0.593 1.521,-2.725 0.02,-3.336l-26.872,-11.117c-2.469,-1.026 -5.212,-1.026 -7.661,0" style="fill-rule:nonzero;"/><path id="XMLID_3_" d="M39.869,39.118l-0,26.735c-0,1.264 1.283,2.133 2.467,1.679l30.072,-11.67c0.691,-0.276 1.145,-0.928 1.145,-1.678l-0,-26.734c-0,-1.263 -1.283,-2.132 -2.467,-1.679l-30.072,11.67c-0.69,0.276 -1.145,0.927 -1.145,1.677" style="fill-rule:nonzero;"/><path id="XMLID_4_" d="M32.84,40.501l-8.925,4.304l-0.909,0.434l-18.835,9.023c-1.185,0.574 -2.725,-0.295 -2.725,-1.618l-0,-25.096c-0,-0.473 0.236,-0.888 0.573,-1.204c0.138,-0.138 0.296,-0.256 0.453,-0.335c0.454,-0.276 1.086,-0.335 1.64,-0.118l28.571,11.313c1.461,0.572 1.579,2.606 0.157,3.297" style="fill-rule:nonzero;"/><path id="XMLID_5_" d="M3.46,25.751c-0.355,0 -0.692,0.099 -0.948,0.257c-0.158,0.098 -0.316,0.197 -0.454,0.335l21.858,18.461l8.925,-4.304c0.672,-0.335 1.007,-0.968 1.007,-1.6c0,-0.692 -0.394,-1.401 -1.145,-1.699l-28.572,-11.312c-0.218,-0.098 -0.455,-0.138 -0.671,-0.138" style="fill-rule:nonzero;"/></g></svg>