<?xml version="1.0" encoding="UTF-8" standalone="no"?>
<!DOCTYPE svg PUBLIC "-//W3C//DTD SVG 1.1//EN" "http://www.w3.org/Graphics/SVG/1.1/DTD/svg11.dtd">
<svg width="100%" height="100%" viewBox="0 0 1063 351" version="1.1" xmlns="http://www.w3.org/2000/svg" xmlns:xlink="http://www.w3.org/1999/xlink" xml:space="preserve" xmlns:serif="http://www.serif.com/" style="fill-rule:evenodd;clip-rule:evenodd;stroke-linejoin:round;stroke-miterlimit:2;">
    <g transform="matrix(0.916166,0,0,0.916166,-42.3306,-908.818)">
        <g transform="matrix(1,0,0,0.0388591,0,1316.74)">
            <rect x="46.204" y="1009.98" width="35.411" height="360" style="fill:rgb(255,249,240);"/>
        </g>
        <g transform="matrix(1,0,0,0.0388591,38.5433,1316.74)">
            <rect x="46.204" y="1009.98" width="35.411" height="360" style="fill:rgb(255,249,240);"/>
        </g>
        <g transform="matrix(1,0,0,0.0388591,77.0866,1316.74)">
            <rect x="46.204" y="1009.98" width="35.411" height="360" style="fill:rgb(255,249,240);"/>
        </g>
        <g transform="matrix(1,0,0,0.309547,115.63,945.907)">
            <rect x="46.204" y="1009.98" width="35.411" height="360" style="fill:rgb(255,249,240);"/>
        </g>
        <g transform="matrix(1,0,0,0.666095,154.173,457.443)">
            <rect x="46.204" y="1009.98" width="35.411" height="360" style="fill:rgb(255,249,240);"/>
        </g>
        <g transform="matrix(1,0,0,0.795623,192.717,279.993)">
            <rect x="46.204" y="1009.98" width="35.411" height="360" style="fill:rgb(255,249,240);"/>
        </g>
        <g transform="matrix(1,0,0,0.880761,231.26,163.355)">
            <rect x="46.204" y="1009.98" width="35.411" height="360" style="fill:rgb(255,249,240);"/>
        </g>
        <g transform="matrix(1,0,0,1,269.803,0)">
            <rect x="46.204" y="1009.98" width="35.411" height="360" style="fill:rgb(255,249,240);"/>
        </g>
        <g transform="matrix(1,0,0,1.05,308.347,-68.499)">
            <rect x="46.204" y="1009.98" width="35.411" height="360" style="fill:rgb(255,249,240);"/>
        </g>
        <g transform="matrix(1,0,0,0.772663,346.89,311.448)">
            <rect x="46.204" y="1009.98" width="35.411" height="360" style="fill:rgb(255,249,240);"/>
        </g>
        <g transform="matrix(1,0,0,0.677608,385.433,441.671)">
            <rect x="46.204" y="1009.98" width="35.411" height="360" style="fill:rgb(255,249,240);"/>
        </g>
        <g transform="matrix(1,0,0,0.738835,423.976,357.791)">
            <rect x="46.204" y="1009.98" width="35.411" height="360" style="fill:rgb(255,249,240);"/>
        </g>
        <g transform="matrix(1,0,0,1.05,462.52,-68.499)">
            <rect x="46.204" y="1009.98" width="35.411" height="360" style="fill:rgb(255,249,240);"/>
        </g>
        <g transform="matrix(1,0,0,1,501.063,0)">
            <rect x="46.204" y="1009.98" width="35.411" height="360" style="fill:rgb(255,249,240);"/>
        </g>
        <g transform="matrix(1,0,0,0.949881,539.606,68.6614)">
            <rect x="46.204" y="1009.98" width="35.411" height="360" style="fill:rgb(255,249,240);"/>
        </g>
        <g transform="matrix(1,0,0,0.656747,578.15,470.25)">
            <rect x="46.204" y="1009.98" width="35.411" height="360" style="fill:rgb(255,249,240);"/>
        </g>
        <g transform="matrix(1,0,0,0.476172,616.693,717.635)">
            <rect x="46.204" y="1009.98" width="35.411" height="360" style="fill:rgb(255,249,240);"/>
        </g>
        <g transform="matrix(1,0,0,0.233276,655.236,1050.4)">
            <rect x="46.204" y="1009.98" width="35.411" height="360" style="fill:rgb(255,249,240);"/>
        </g>
        <g transform="matrix(1,0,0,0.0400071,693.78,1315.17)">
            <rect x="46.204" y="1009.98" width="35.411" height="360" style="fill:rgb(255,249,240);"/>
        </g>
        <g transform="matrix(1,0,0,0.0400071,732.323,1315.17)">
            <rect x="46.204" y="1009.98" width="35.411" height="360" style="fill:rgb(255,249,240);"/>
        </g>
        <g transform="matrix(1,0,0,0.0400071,770.866,1315.17)">
            <rect x="46.204" y="1009.98" width="35.411" height="360" style="fill:rgb(255,249,240);"/>
        </g>
        <g transform="matrix(1,0,0,0.0400071,809.41,1315.17)">
            <rect x="46.204" y="1009.98" width="35.411" height="360" style="fill:rgb(255,249,240);"/>
        </g>
        <g transform="matrix(1,0,0,0.0400071,847.953,1315.17)">
            <rect x="46.204" y="1009.98" width="35.411" height="360" style="fill:rgb(255,249,240);"/>
        </g>
        <g transform="matrix(1,0,0,0.0400071,886.496,1315.17)">
            <rect x="46.204" y="1009.98" width="35.411" height="360" style="fill:rgb(255,249,240);"/>
        </g>
        <g transform="matrix(1,0,0,0.0400071,925.04,1315.17)">
            <rect x="46.204" y="1009.98" width="35.411" height="360" style="fill:rgb(255,249,240);"/>
        </g>
        <g transform="matrix(1,0,0,0.0400071,963.583,1315.17)">
            <rect x="46.204" y="1009.98" width="35.411" height="360" style="fill:rgb(255,249,240);"/>
        </g>
        <g transform="matrix(1,0,0,0.296836,1002.13,963.321)">
            <rect x="46.204" y="1009.98" width="35.411" height="360" style="fill:rgb(255,249,240);"/>
        </g>
        <g transform="matrix(1,0,0,0.670479,1040.67,451.437)">
            <rect x="46.204" y="1009.98" width="35.411" height="360" style="fill:rgb(255,249,240);"/>
        </g>
        <g transform="matrix(1,0,0,0.881952,1079.21,161.723)">
            <rect x="46.204" y="1009.98" width="35.411" height="360" style="fill:rgb(255,249,240);"/>
        </g>
        <g transform="matrix(1,0,0,1,1117.76,2)">
            <rect x="46.204" y="1009.98" width="35.411" height="360" style="fill:rgb(255,249,240);"/>
        </g>
    </g>
</svg>
