<?xml version="1.0" encoding="UTF-8" standalone="no"?><!DOCTYPE svg PUBLIC "-//W3C//DTD SVG 1.1//EN" "http://www.w3.org/Graphics/SVG/1.1/DTD/svg11.dtd"><svg width="100%" height="100%" viewBox="0 0 75 75" version="1.1" xmlns="http://www.w3.org/2000/svg" xmlns:xlink="http://www.w3.org/1999/xlink" xml:space="preserve" xmlns:serif="http://www.serif.com/" style="fill-rule:evenodd;clip-rule:evenodd;stroke-linejoin:round;stroke-miterlimit:2;"><g><path d="M40.911,59.974l-37.739,-10.444l-1.423,-0.489c-0.669,-0.23 -1.181,-0.776 -1.368,-1.458l-0.381,-2.073l29.805,-27.766c1.088,-1.014 2.625,-1.39 4.059,-0.992l37.918,10.624c0.8,0.222 1.4,0.886 1.538,1.705l1.68,9.926c-0.029,0.553 -0.272,1.083 -0.692,1.468l-12.722,11.698l-18.035,7.678c-0.845,0.319 -1.769,0.362 -2.64,0.123Z"/><path d="M0.712,43.814c-0.583,0.523 -0.835,1.322 -0.655,2.084c0.18,0.763 0.761,1.366 1.517,1.573c8.979,2.462 31.348,8.593 38.557,10.569c1.417,0.389 2.935,0.023 4.019,-0.969c5.394,-4.935 21.856,-19.997 28.515,-26.089c0.573,-0.524 0.817,-1.318 0.637,-2.074c-0.18,-0.755 -0.755,-1.354 -1.503,-1.564c-8.8,-2.47 -30.746,-8.629 -37.855,-10.623c-1.408,-0.396 -2.92,-0.044 -4.01,0.931c-5.483,4.909 -22.377,20.034 -29.222,26.162Z" style="fill:#fff;"/><path d="M0.712,43.814l29.222,-26.162c1.09,-0.975 2.602,-1.327 4.01,-0.931l37.855,10.623c0.748,0.21 1.323,0.809 1.503,1.564c0.18,0.756 -0.064,1.55 -0.637,2.074l-28.515,26.089c-1.084,0.992 -2.602,1.358 -4.019,0.969l-38.557,-10.569c-0.756,-0.207 -1.337,-0.81 -1.517,-1.573c-0.18,-0.762 0.072,-1.561 0.655,-2.084Zm3.941,1.002l36.37,9.969c0.299,0.082 0.62,0.005 0.849,-0.204l26.875,-24.588l-35.714,-10.023c-0.298,-0.083 -0.617,-0.009 -0.847,0.197l-27.533,24.649Z"/></g></svg>