<?xml version="1.0" encoding="UTF-8" standalone="no"?><!DOCTYPE svg PUBLIC "-//W3C//DTD SVG 1.1//EN" "http://www.w3.org/Graphics/SVG/1.1/DTD/svg11.dtd"><svg width="100%" height="100%" viewBox="0 0 75 75" version="1.1" xmlns="http://www.w3.org/2000/svg" xmlns:xlink="http://www.w3.org/1999/xlink" xml:space="preserve" xmlns:serif="http://www.serif.com/" style="fill-rule:evenodd;clip-rule:evenodd;stroke-linecap:round;stroke-linejoin:round;stroke-miterlimit:1.5;"><g><path d="M59.883,24.737l-17.691,-17.691l-27.369,-0l0,60.908l45.06,0l-0,-43.217Z" style="fill:#fff;stroke:#000;stroke-width:4.5px;"/><path d="M59.883,24.737l-17.691,-17.691l-0,17.691l17.691,-0Z" style="stroke:#000;stroke-width:4.5px;"/><g><path d="M31.697,50.666c-0.162,-2.376 -0.513,-6.939 -5.373,-6.939c-5.13,-0 -5.859,5.778 -5.859,9.369c-0,5.859 1.728,9.18 5.751,9.18c4.887,-0 5.238,-4.968 5.346,-6.561l-3.132,-0.243c-0.243,2.808 -0.729,3.591 -2.133,3.591c-0.783,-0 -1.188,-0.378 -1.485,-1.107c-0.432,-1.134 -0.432,-3.321 -0.432,-4.698c-0,-1.053 -0,-3.834 0.486,-5.13c0.324,-0.864 0.729,-1.188 1.539,-1.188c1.755,-0 1.971,2.16 2.025,3.996l3.267,-0.27Z" style="fill:#222;fill-rule:nonzero;"/><path d="M42.551,47.858c-0.297,-1.026 -1.215,-4.131 -4.914,-4.131c-3.186,-0 -4.914,2.754 -4.914,5.481c-0,1.134 0.324,2.241 0.81,2.997c0.783,1.242 1.89,1.755 4.158,2.889c0.702,0.324 1.512,0.837 1.512,2.052c-0,0.432 -0.162,1.89 -1.836,1.89c-1.296,-0 -1.917,-0.729 -2.349,-2.646l-2.943,1.026c0.324,1.755 1.188,4.86 5.292,4.86c3.483,-0 5.454,-2.349 5.454,-5.697c-0,-3.429 -2.322,-4.509 -3.429,-5.049c-2.646,-1.215 -3.213,-1.485 -3.213,-2.808c-0,-0.297 0.081,-1.755 1.566,-1.755c0.783,-0 1.62,0.351 2.052,2.106l2.754,-1.215Z" style="fill:#222;fill-rule:nonzero;"/><path d="M46.709,62.006l3.753,-0l3.78,-18.009l-3.186,-0l-1.566,8.748c-0.297,1.755 -0.486,3.564 -0.567,4.86c-0.189,-2.133 -0.54,-4.536 -0.594,-4.86l-1.458,-8.748l-3.834,-0l3.672,18.009Z" style="fill:#222;fill-rule:nonzero;"/></g></g></svg>