<?xml version="1.0" encoding="UTF-8" standalone="no"?>
<!DOCTYPE svg PUBLIC "-//W3C//DTD SVG 1.1//EN" "http://www.w3.org/Graphics/SVG/1.1/DTD/svg11.dtd">
<svg width="100%" height="100%" viewBox="0 0 674 178" version="1.1" xmlns="http://www.w3.org/2000/svg" xmlns:xlink="http://www.w3.org/1999/xlink" xml:space="preserve" xmlns:serif="http://www.serif.com/" style="fill-rule:evenodd;clip-rule:evenodd;stroke-linecap:round;stroke-linejoin:round;stroke-miterlimit:1.5;">
    <g transform="matrix(0.916166,0,0,0.916166,-36.3306,-322.608)">
        <path d="M46.204,487.063L78.346,450.612L117.782,448.927L128.528,436.431L159.128,421.408L190.711,397.98L253.249,397.98L265.333,380.817L291.364,358.678L314.976,360.193L350.487,371.978L374.625,397.98L393.398,417.985L423,429.642L439.796,464.106L472.767,477.407L520.076,479.862L551.231,486.8L570.303,504.634L594.001,524.04L621,538.942L653.344,539.489L683.104,533.939L705.571,515.45L732.157,490.999L751.023,467.949L767.761,443.127" style="fill:none;stroke:rgb(255,249,240);stroke-width:13.1px;"/>
    </g>
</svg>
